<svg width="49" height="78" viewBox="0 0 49 78" fill="none" xmlns="http://www.w3.org/2000/svg">
<path d="M39.5729 5.20858L39.5463 22.2021L24.581 13.21L39.5729 5.20858Z" fill="#F7C42A"/>
<path d="M24.5239 30.1902L39.5158 22.1887L24.5505 13.1966L24.5239 30.1902Z" fill="#F7A511"/>
<path d="M38.6652 39.7208L38.6387 56.7143L23.6733 47.7222L38.6652 39.7208Z" fill="#9CB2D0"/>
<path d="M23.6163 64.7023L38.6082 56.7009L23.6428 47.7088L23.6163 64.7023Z" fill="#F39501"/>
<path d="M24.5172 13.2248L24.4906 30.2184L9.5253 21.2263L24.5172 13.2248Z" fill="#F39501"/>
<path d="M9.46825 38.2064L24.4602 30.205L9.49483 21.2129L9.46825 38.2064Z" fill="#2A6FD0"/>
<path d="M23.6892 47.6408L23.6626 64.6343L8.6973 55.6422L23.6892 47.6408Z" fill="#F7A511"/>
<path d="M8.64025 72.6224L23.6322 64.6209L8.66683 55.6288L8.64025 72.6224Z" fill="#F7C42A"/>
<path d="M9.4993 38.2353L24.4883 30.2284L23.6355 47.6666L9.4993 38.2353Z" fill="#4981D0"/>
<path d="M38.6271 39.6929L24.4909 30.2616L23.6381 47.6998L38.6271 39.6929Z" fill="#7D9FD0"/>
</svg>
