<svg version="1.1" id="Layer_1" xmlns="http://www.w3.org/2000/svg" xmlns:xlink="http://www.w3.org/1999/xlink" x="0px" y="0px"
	 width="100%" viewBox="0 0 730 730" enable-background="new 0 0 730 730" xml:space="preserve">
<path fill="transparent" opacity="1.000000" stroke="none" 
	d="
M416.000000,731.000000 
	C277.333344,731.000000 139.166672,731.000000 1.000000,731.000000 
	C1.000000,487.666656 1.000000,244.333328 1.000000,1.000000 
	C244.333328,1.000000 487.666656,1.000000 731.000000,1.000000 
	C731.000000,244.333328 731.000000,487.666656 731.000000,731.000000 
	C626.166687,731.000000 521.333313,731.000000 416.000000,731.000000 
M505.149323,264.151978 
	C505.147064,288.084473 505.128632,312.016998 505.175842,335.949402 
	C505.179321,337.719940 505.655304,339.489594 506.079285,341.671265 
	C506.079285,341.671265 506.372620,342.005127 506.191589,342.829041 
	C506.297089,344.217773 506.402588,345.606537 506.229553,347.895721 
	C506.364838,376.280762 506.494354,404.665863 506.660370,433.050720 
	C506.665924,434.000610 507.039703,434.948364 507.011871,436.821411 
	C507.166290,442.544128 507.320709,448.266846 507.292450,454.613007 
	C507.597290,455.380798 507.902130,456.148590 508.103119,457.643280 
	C508.277100,458.091034 508.451111,458.538757 508.444794,459.514984 
	C508.701447,459.982025 508.958099,460.449097 509.106567,461.644745 
	C509.279602,462.094421 509.452606,462.544098 509.465485,463.599915 
	C509.890930,464.289764 510.316345,464.979614 510.670563,466.340393 
	C511.568390,467.891205 512.466187,469.441986 513.331665,471.594391 
	C513.840759,472.194855 514.349792,472.795288 514.880798,473.767731 
	C514.880798,473.767731 515.176025,473.995056 515.229004,474.635742 
	C516.100464,475.577087 516.971924,476.518433 517.900208,477.977722 
	C518.261536,478.320343 518.622925,478.662994 519.126160,479.653137 
	C520.750977,481.101288 522.375732,482.549469 524.276367,484.620758 
	C528.540588,487.072723 532.804810,489.524689 537.173828,492.778137 
	C535.860413,493.752655 534.678528,495.053131 533.210815,495.644928 
	C526.993835,498.151672 520.691956,500.447754 513.705872,502.738556 
	C512.140686,503.329803 510.575470,503.921021 508.302795,504.471283 
	C504.995911,505.914185 501.689026,507.357086 497.733032,508.731964 
	C497.158569,509.010162 496.584076,509.288361 495.284454,509.478546 
	C486.325073,511.759247 477.469849,514.685913 468.379059,516.151672 
	C457.801331,517.857239 447.884338,513.738159 437.498138,510.059357 
	C436.464783,509.658630 435.431427,509.257935 434.102936,508.322876 
	C433.400238,507.993805 432.697571,507.664764 431.718597,506.984985 
	C431.718597,506.984985 431.281677,506.893219 431.034912,506.347870 
	C430.354523,506.010254 429.674164,505.672638 428.544159,504.828125 
	C426.758850,503.528107 424.973572,502.228119 422.984528,500.315765 
	C421.976135,499.585602 420.967773,498.855438 419.746338,497.554901 
	C419.131378,497.047241 418.516449,496.539581 417.832397,495.413605 
	C417.253082,494.859161 416.673767,494.304718 415.891418,493.175323 
	C415.187042,492.451141 414.482666,491.726959 413.765900,490.386597 
	C413.222626,489.799042 412.679382,489.211517 412.095398,488.010101 
	C411.640381,487.341888 411.185333,486.673676 410.728821,485.346313 
	C409.862366,484.113434 408.995911,482.880554 408.098785,481.258118 
	C408.098785,481.258118 407.802277,481.003510 407.779633,480.315765 
	C406.566071,478.414459 405.352509,476.513123 404.089966,473.998566 
	C403.630737,473.334198 403.171509,472.669800 402.707397,471.345795 
	C401.853363,470.093140 400.999329,468.840485 400.110474,466.977875 
	C399.653381,466.320129 399.196289,465.662415 398.728699,464.343231 
	C397.865997,463.097961 397.003265,461.852722 396.143250,460.242767 
	C396.143250,460.242767 395.869263,460.002075 395.837952,459.295685 
	C394.274139,456.722778 392.710327,454.149872 391.119324,450.973389 
	C390.676239,450.316681 390.233154,449.660004 389.775421,448.315491 
	C388.564362,446.409271 387.353302,444.503052 386.152039,442.236755 
	C386.152039,442.236755 385.879028,442.001770 385.838959,441.310852 
	C384.604645,439.414276 383.370331,437.517670 382.117188,435.243774 
	C382.117188,435.243774 381.826172,435.002960 381.806152,434.335632 
	C380.918457,433.088623 380.030731,431.841614 379.136414,430.230682 
	C379.136414,430.230682 378.852997,430.002289 378.816467,429.298004 
	C377.258118,426.730713 375.699768,424.163422 374.142578,421.233429 
	C374.142578,421.233429 373.863251,421.002075 373.837189,420.311401 
	C372.600739,418.423828 371.364319,416.536255 370.105896,414.258270 
	C370.105896,414.258270 369.809723,414.002960 369.789001,413.332062 
	C368.915375,412.046875 368.041748,410.761719 367.137970,408.889526 
	C366.696014,408.278259 366.254059,407.667023 365.788574,406.380585 
	C364.911469,405.095978 364.034332,403.811340 363.126556,401.933868 
	C362.692719,401.306641 362.258911,400.679413 361.808838,399.394562 
	C361.282166,398.713806 360.755493,398.033081 360.264832,396.840698 
	C360.076630,396.562439 359.888397,396.284180 359.708313,395.384186 
	C359.196106,394.744904 358.683899,394.105652 358.123840,392.822266 
	C357.325409,391.549988 356.526947,390.277740 355.715302,388.383667 
	C355.200836,387.744812 354.686401,387.105957 354.081085,385.833740 
	C353.307678,384.557404 352.534271,383.281067 351.735626,381.376892 
	C351.218353,380.727661 350.701080,380.078400 350.115692,378.794037 
	C349.326447,377.531158 348.537201,376.268250 347.735474,374.394653 
	C347.163696,373.579102 346.591919,372.763550 345.908112,371.257294 
	C341.007172,362.460419 336.229370,353.590515 331.094513,344.932373 
	C330.143127,343.328247 327.751648,342.578186 325.272858,341.377228 
	C324.962128,341.916962 324.380768,342.456573 324.380524,342.996429 
	C324.375488,354.333130 324.436096,365.669830 324.254669,377.915009 
	C324.158722,411.711060 324.141205,445.507599 323.946808,479.303070 
	C323.710480,520.389893 323.317322,561.475769 323.026367,602.562317 
	C323.011200,604.703003 323.317474,606.846008 323.382080,609.701355 
	C325.082947,611.147461 326.643494,613.620972 328.507080,613.875427 
	C342.122253,615.734436 355.762573,617.784241 369.463440,618.552979 
	C390.068359,619.709045 410.541992,617.704895 430.813599,613.689209 
	C446.591125,610.563721 462.138275,606.743225 477.448303,599.848267 
	C477.628510,599.730347 477.808685,599.612427 478.694946,599.579712 
	C481.429474,598.375427 484.164032,597.171143 487.588715,595.830872 
	C488.388824,595.358215 489.188934,594.885498 490.636963,594.475830 
	C492.306274,593.617737 493.975616,592.759644 496.462555,591.679749 
	C496.706116,591.536865 496.949707,591.394043 497.442993,591.458130 
	C497.705811,591.386230 497.804047,591.217896 498.450745,590.817810 
	C502.631348,588.432373 506.811920,586.046875 511.596466,583.664795 
	C512.194397,583.156677 512.792236,582.648560 513.758911,582.126770 
	C513.758911,582.126770 513.997437,581.845215 514.660278,581.804993 
	C515.894714,580.914124 517.129089,580.023315 518.748413,579.101807 
	C518.748413,579.101807 518.997131,578.806458 519.626770,578.769653 
	C520.267700,578.238403 520.908691,577.707214 522.187073,577.095886 
	C523.790649,576.016479 525.394287,574.937134 527.616760,573.804871 
	C528.217651,573.252136 528.818542,572.699341 529.777161,572.127625 
	C529.777161,572.127625 529.997498,571.845093 530.615784,571.796631 
	C531.216919,571.246643 531.818115,570.696594 532.777161,570.129089 
	C532.777161,570.129089 532.997498,569.846619 533.606079,569.794128 
	C534.178284,569.236023 534.750549,568.677917 535.862061,568.058228 
	C536.238770,567.697632 536.615479,567.337036 537.612854,566.871094 
	C538.201538,566.292664 538.790222,565.714294 539.909485,565.072815 
	C540.270752,564.708618 540.632080,564.344421 541.607483,563.871094 
	C542.172485,563.285034 542.737488,562.698975 543.896912,562.005432 
	C544.591858,561.319031 545.286743,560.632629 546.615601,559.814148 
	C547.533936,558.921204 548.452209,558.028320 549.972473,556.991028 
	C550.978027,555.982971 551.983582,554.974976 553.604797,553.857544 
	C554.182007,553.279663 554.759155,552.701782 555.927917,552.022644 
	C556.615662,551.340027 557.303467,550.657349 558.643127,549.825134 
	C562.100891,546.218628 565.558716,542.612122 569.630066,538.746460 
	C572.778809,535.231262 575.927551,531.716064 579.651672,527.977051 
	C580.106262,527.319763 580.560852,526.662476 581.608459,525.752197 
	C582.767151,524.242249 583.925842,522.732300 585.656555,520.987366 
	C586.104980,520.325073 586.553467,519.662781 587.607666,518.712463 
	C592.433044,511.874664 597.258423,505.036865 602.661682,497.837006 
	C609.695129,485.249573 617.410767,472.988190 623.616150,460.005035 
	C635.528015,435.082886 642.433289,408.590637 644.985168,381.094757 
	C646.225586,367.730133 646.433716,354.269684 648.006836,340.736206 
	C660.132507,340.910583 672.263550,341.342010 684.380432,341.091431 
	C687.704041,341.022675 691.804871,339.785217 694.145813,337.588684 
	C704.937866,327.462311 715.284729,316.857147 725.640747,306.276459 
	C726.867554,305.023010 727.172058,302.866791 728.114380,300.408478 
	C727.443176,299.315796 726.952820,298.043671 726.073425,297.157654 
	C714.998169,285.998993 703.880310,274.882477 692.717896,263.811066 
	C692.008911,263.107849 690.842651,262.865631 688.994995,262.173431 
	C670.091797,262.180511 651.188660,262.187592 632.133179,261.412689 
	C608.059692,197.139618 567.037354,147.604263 506.689026,114.873726 
	C506.157928,115.199715 505.626831,115.525696 505.095734,115.851685 
	C505.095734,164.983414 505.095734,214.115158 505.149323,264.151978 
M240.980469,330.294403 
	C241.000931,307.434845 241.021378,284.575287 241.047409,260.814087 
	C241.063080,249.484299 241.178406,238.153000 241.007629,226.826019 
	C240.974747,224.645248 240.425583,221.955811 239.076920,220.401352 
	C233.462112,213.929794 227.707993,207.424637 218.156235,206.032974 
	C219.458008,204.839554 220.763214,203.985489 222.187653,203.446487 
	C236.472305,198.041290 250.823349,192.808136 265.057159,187.273132 
	C273.146851,184.127365 281.151215,180.630188 290.071991,181.938690 
	C297.121155,182.972672 304.284363,183.942307 311.043213,186.066116 
	C319.951874,188.865509 328.682709,193.066574 334.415466,200.588730 
	C341.849243,210.342819 348.372803,220.835449 354.757965,231.332642 
	C362.964050,244.823410 370.649658,258.630951 378.548553,272.308380 
	C385.188629,283.806122 391.955078,295.233978 398.408081,306.835968 
	C406.320526,321.061981 413.966248,335.436340 421.723328,349.748688 
	C422.518219,351.215363 423.285736,352.696808 424.065948,354.171417 
	C424.528503,354.058258 424.991089,353.945068 425.453644,353.831909 
	C425.608307,351.600403 425.897583,349.368896 425.898193,347.137360 
	C425.921295,262.328857 425.917877,177.520355 425.917999,92.711845 
	C425.917999,92.545227 425.887299,92.371826 425.922394,92.212975 
	C427.023499,87.231377 423.649841,85.702599 419.922638,85.207726 
	C414.537506,84.492706 409.072540,84.379059 403.267151,83.472725 
	C402.854218,83.244987 402.440643,82.817055 402.028442,82.818367 
	C385.518768,82.870636 369.009216,82.961761 351.621613,83.068848 
	C346.548126,83.790649 341.446014,84.353477 336.405792,85.260178 
	C304.645813,90.973557 274.332733,100.877960 246.282486,117.061371 
	C226.391724,128.537216 207.515991,141.426987 191.869568,158.486710 
	C182.599213,168.594437 172.661209,178.238373 164.543442,189.214996 
	C155.494095,201.451218 147.548996,214.626724 140.291779,228.026276 
	C134.629745,238.480545 130.755203,249.902939 125.327049,261.289795 
	C118.202560,261.551178 111.058662,261.565369 103.957390,262.122559 
	C86.068047,263.526245 71.600990,270.622070 63.351665,287.518707 
	C54.238041,306.185699 54.173107,325.047821 62.267551,344.043732 
	C71.687958,366.151398 87.102402,383.654663 104.725311,399.510712 
	C109.029472,403.383362 113.466911,407.367310 116.727951,412.072906 
	C120.630608,417.704346 118.370834,421.919159 111.669777,423.234924 
	C109.072586,423.744904 106.416115,424.203613 103.781494,424.233673 
	C75.968422,424.550842 48.154533,424.858582 20.340218,424.937042 
	C16.272692,424.948547 14.916750,425.949890 14.962546,430.192841 
	C15.176491,450.013885 15.166885,469.839600 14.967523,489.660950 
	C14.926189,493.770447 16.028843,495.003845 20.234381,494.995056 
	C54.383060,494.923706 88.532707,495.020905 122.680992,495.236847 
	C132.978699,495.301941 143.272995,495.901794 153.917175,496.852325 
	C162.641953,508.390961 170.640930,520.579468 180.257477,531.319641 
	C195.623856,548.481384 213.276047,563.261780 232.534729,576.007385 
	C234.941681,577.600342 237.627121,578.772522 241.007278,580.580200 
	C241.007278,577.608459 241.007294,575.805725 241.007294,574.002991 
	C241.007309,551.360352 241.015732,528.717773 241.005722,506.075165 
	C240.979965,447.804352 240.946060,389.533539 240.980469,330.294403 
z"/>
<path fill="#FE8725" opacity="1.000000" stroke="none" 
	d="
M326.024811,341.433960 
	C327.751648,342.578186 330.143127,343.328247 331.094513,344.932373 
	C336.229370,353.590515 341.007172,362.460419 345.956360,371.944519 
	C346.585724,373.422974 347.166840,374.214172 347.747925,375.005371 
	C348.537201,376.268250 349.326447,377.531158 350.115814,379.469055 
	C350.664246,380.764313 351.212555,381.384521 351.760864,382.004730 
	C352.534271,383.281067 353.307678,384.557404 354.095154,386.502319 
	C354.648987,387.782410 355.188751,388.393951 355.728485,389.005493 
	C356.526947,390.277740 357.325409,391.549988 358.115845,393.494141 
	C358.638641,394.779297 359.169403,395.392609 359.700165,396.005920 
	C359.888397,396.284180 360.076630,396.562439 360.198944,397.466980 
	C360.697052,398.746246 361.261078,399.399200 361.825073,400.052185 
	C362.258911,400.679413 362.692719,401.306641 363.113098,402.608459 
	C364.003784,404.540619 364.907928,405.798218 365.812073,407.055786 
	C366.254059,407.667023 366.696014,408.278259 367.121674,409.565186 
	C368.006836,411.494843 368.908295,412.748901 369.809723,414.002960 
	C369.809723,414.002960 370.105896,414.258270 370.098602,414.834259 
	C371.348633,417.274200 372.605957,419.138123 373.863251,421.002075 
	C373.863251,421.002075 374.142578,421.233429 374.119995,421.806519 
	C375.682587,424.920502 377.267792,427.461395 378.852997,430.002289 
	C378.852997,430.002289 379.136414,430.230682 379.115051,430.785675 
	C380.004547,432.561432 380.915344,433.782196 381.826172,435.002960 
	C381.826172,435.002960 382.117188,435.243774 382.106262,435.815430 
	C383.356567,438.258667 384.617798,440.130219 385.879028,442.001770 
	C385.879028,442.001770 386.152039,442.236755 386.124451,442.800415 
	C387.327942,445.243805 388.558990,447.123535 389.790070,449.003296 
	C390.233154,449.660004 390.676239,450.316681 391.109894,451.668243 
	C392.690063,454.909424 394.279663,457.455750 395.869263,460.002075 
	C395.869263,460.002075 396.143250,460.242767 396.117737,460.792908 
	C396.974579,462.563568 397.856873,463.784149 398.739197,465.004700 
	C399.196289,465.662415 399.653381,466.320129 400.102295,467.651062 
	C400.966858,469.551300 401.839569,470.778381 402.712280,472.005432 
	C403.171509,472.669800 403.630737,473.334198 404.093323,474.687286 
	C405.331909,477.251831 406.567078,479.127686 407.802277,481.003510 
	C407.802277,481.003510 408.098785,481.258118 408.093262,481.816772 
	C408.968597,483.585419 409.849457,484.795441 410.730316,486.005463 
	C411.185333,486.673676 411.640381,487.341888 412.095886,488.657806 
	C412.657013,489.871277 413.217621,490.437042 413.778259,491.002808 
	C414.482666,491.726959 415.187042,492.451141 415.990723,493.801575 
	C416.693878,494.962555 417.297699,495.497223 417.901520,496.031921 
	C418.516449,496.539581 419.131378,497.047241 419.904633,498.180206 
	C421.104706,499.513031 422.146484,500.220581 423.188263,500.928131 
	C424.973572,502.228119 426.758850,503.528107 428.843170,505.388000 
	C429.855347,506.263000 430.568512,506.578094 431.281677,506.893219 
	C431.281677,506.893219 431.718597,506.984985 431.937561,507.474060 
	C432.903748,508.261139 433.650909,508.559174 434.398071,508.857178 
	C435.431427,509.257935 436.464783,509.658630 437.845490,510.594025 
	C438.701660,511.530182 439.155914,512.047729 439.727203,512.316284 
	C458.479736,521.131165 476.928528,518.446777 495.221558,510.768585 
	C495.587860,510.614838 495.751434,509.977997 496.009583,509.566559 
	C496.584076,509.288361 497.158569,509.010162 498.484375,508.801392 
	C502.493896,507.417969 505.752106,505.965118 509.010284,504.512238 
	C510.575470,503.921021 512.140686,503.329803 514.486816,502.809143 
	C522.637817,500.572113 530.022339,498.308441 537.359436,495.900482 
	C538.264832,495.603333 538.917786,494.537018 539.687683,493.827087 
	C538.814819,493.210266 537.941956,492.593445 537.069092,491.976624 
	C532.804810,489.524689 528.540588,487.072723 524.108154,483.964294 
	C522.287964,481.873779 520.636108,480.439728 518.984253,479.005676 
	C518.622925,478.662994 518.261536,478.320343 517.900024,477.348969 
	C516.991882,475.811829 516.083923,474.903442 515.176025,473.995056 
	C515.176025,473.995056 514.880798,473.767731 514.895447,473.250183 
	C514.394775,472.152710 513.879395,471.572754 513.364014,470.992798 
	C512.466187,469.441986 511.568390,467.891205 510.769775,465.669861 
	C510.454529,464.330841 510.040070,463.662323 509.625610,462.993774 
	C509.452606,462.544098 509.279602,462.094421 509.346008,461.133240 
	C509.265350,460.076660 508.945221,459.531586 508.625122,458.986481 
	C508.451111,458.538757 508.277100,458.091034 508.369019,457.090149 
	C508.248322,455.687836 507.861725,454.838715 507.475128,453.989563 
	C507.320709,448.266846 507.166290,442.544128 507.377563,436.043304 
	C507.827759,406.766998 507.926361,378.268768 507.933807,349.770538 
	C507.934052,348.845612 507.004303,347.920380 506.508057,346.995270 
	C506.402588,345.606537 506.297089,344.217773 506.515045,342.387726 
	C507.215912,341.509827 507.593292,341.073273 508.412781,340.470459 
	C520.455566,340.304199 532.056213,340.304199 544.078918,340.304199 
	C544.078918,386.171936 544.078918,431.310822 543.982422,476.954346 
	C544.004883,483.196960 544.123962,488.934967 544.428894,495.041077 
	C546.398621,495.602478 548.182007,495.958557 549.966309,495.963531 
	C565.760498,496.007416 581.555420,495.926422 597.348145,496.085663 
	C598.933655,496.101685 600.505554,497.462402 602.083801,498.199066 
	C597.258423,505.036865 592.433044,511.874664 586.966614,518.903564 
	C585.911865,519.803833 585.498230,520.513123 585.084534,521.222351 
	C583.925842,522.732300 582.767151,524.242249 580.973877,525.922485 
	C579.918335,526.795410 579.497314,527.498169 579.076355,528.200867 
	C575.927551,531.716064 572.778809,535.231262 568.976807,538.903748 
	C564.879456,542.698975 561.435364,546.336853 557.991211,549.974731 
	C557.303467,550.657349 556.615662,551.340027 555.279907,552.061646 
	C554.084351,552.722778 553.536743,553.344910 552.989136,553.966980 
	C551.983582,554.974976 550.978027,555.982971 549.303101,557.042725 
	C547.749756,558.044983 546.865723,558.995605 545.981628,559.946228 
	C545.286743,560.632629 544.591858,561.319031 543.250000,562.051941 
	C542.066528,562.725708 541.529968,563.352966 540.993408,563.980225 
	C540.632080,564.344421 540.270752,564.708618 539.287231,565.088867 
	C538.107361,565.728821 537.549744,566.352600 536.992126,566.976440 
	C536.615479,567.337036 536.238770,567.697632 535.251709,568.075745 
	C534.093384,568.677734 533.545471,569.262207 532.997559,569.846680 
	C532.997498,569.846619 532.777161,570.129089 532.248108,570.115967 
	C531.145203,570.683533 530.571350,571.264282 529.997498,571.845093 
	C529.997498,571.845093 529.777161,572.127625 529.247070,572.115479 
	C528.143921,572.688110 527.570923,573.272949 526.997864,573.857727 
	C525.394287,574.937134 523.790649,576.016479 521.508606,577.104919 
	C520.219116,577.678101 519.608154,578.242310 518.997131,578.806458 
	C518.997131,578.806458 518.748413,579.101807 518.186096,579.096069 
	C516.415039,580.008667 515.206238,580.926941 513.997437,581.845215 
	C513.997437,581.845215 513.758911,582.126770 513.242065,582.109253 
	C512.147705,582.614929 511.570099,583.138184 510.992493,583.661438 
	C506.811920,586.046875 502.631348,588.432373 497.999084,590.927612 
	C497.547455,591.037354 497.193268,591.251160 497.193268,591.251160 
	C496.949707,591.394043 496.706116,591.536865 495.710571,591.815063 
	C493.302094,592.771179 491.645569,593.592041 489.989044,594.412842 
	C489.188934,594.885498 488.388824,595.358215 486.858765,595.903198 
	C483.415466,597.148499 480.702179,598.321533 477.988861,599.494568 
	C477.808685,599.612427 477.628510,599.730347 476.741241,599.908569 
	C467.132935,602.564758 458.285767,605.367188 449.319550,607.714661 
	C428.766296,613.095825 407.816376,616.792725 386.609100,616.739136 
	C369.454712,616.695679 352.311188,614.289001 335.151306,613.096802 
	C330.797821,612.794250 326.652374,612.399658 323.474091,608.987915 
	C323.317474,606.846008 323.011200,604.703003 323.026367,602.562317 
	C323.317322,561.475769 323.710480,520.389893 323.946808,479.303070 
	C324.141205,445.507599 324.158722,411.711060 324.717957,377.314117 
	C325.453766,375.155151 325.950317,373.598785 325.962433,372.038696 
	C326.041687,361.837585 326.016113,351.635620 326.024811,341.433960 
z"/>
<path fill="#0269F9" opacity="1.000000" stroke="none" 
	d="
M403.641632,84.008827 
	C409.072540,84.379059 414.537506,84.492706 419.922638,85.207726 
	C423.649841,85.702599 427.023499,87.231377 425.922394,92.212975 
	C425.887299,92.371826 425.917999,92.545227 425.917999,92.711845 
	C425.917877,177.520355 425.921295,262.328857 425.898193,347.137360 
	C425.897583,349.368896 425.608307,351.600403 425.453644,353.831909 
	C424.991089,353.945068 424.528503,354.058258 424.065948,354.171417 
	C423.285736,352.696808 422.518219,351.215363 421.723328,349.748688 
	C413.966248,335.436340 406.320526,321.061981 398.408081,306.835968 
	C391.955078,295.233978 385.188629,283.806122 378.548553,272.308380 
	C370.649658,258.630951 362.964050,244.823410 354.757965,231.332642 
	C348.372803,220.835449 341.849243,210.342819 334.415466,200.588730 
	C328.682709,193.066574 319.951874,188.865509 311.043213,186.066116 
	C304.284363,183.942307 297.121155,182.972672 290.071991,181.938690 
	C281.151215,180.630188 273.146851,184.127365 265.057159,187.273132 
	C250.823349,192.808136 236.472305,198.041290 222.187653,203.446487 
	C220.763214,203.985489 219.458008,204.839554 218.156235,206.032974 
	C227.707993,207.424637 233.462112,213.929794 239.076920,220.401352 
	C240.425583,221.955811 240.974747,224.645248 241.007629,226.826019 
	C241.178406,238.153000 241.063080,249.484299 240.571762,261.278259 
	C203.492310,261.773254 166.888504,261.814484 130.284714,261.795044 
	C128.885101,261.794281 127.485794,261.208374 126.086349,260.895111 
	C130.755203,249.902939 134.629745,238.480545 140.291779,228.026276 
	C147.548996,214.626724 155.494095,201.451218 164.543442,189.214996 
	C172.661209,178.238373 182.599213,168.594437 191.869568,158.486710 
	C207.515991,141.426987 226.391724,128.537216 246.282486,117.061371 
	C274.332733,100.877960 304.645813,90.973557 336.405792,85.260178 
	C341.446014,84.353477 346.548126,83.790649 352.475586,83.087097 
	C370.100220,83.406502 386.870941,83.707664 403.641632,84.008827 
z"/>
<path fill="#FE8725" opacity="1.000000" stroke="none" 
	d="
M125.706696,261.092468 
	C127.485794,261.208374 128.885101,261.794281 130.284714,261.795044 
	C166.888504,261.814484 203.492310,261.773254 240.568970,261.729065 
	C241.021378,284.575287 241.000931,307.434845 240.487030,330.728302 
	C220.683060,331.119141 201.372543,331.049591 182.062027,331.050751 
	C176.904480,331.051086 171.632935,330.659149 166.628983,331.596436 
	C163.227158,332.233582 159.209885,334.143127 157.254181,336.799072 
	C154.761337,340.184448 157.767441,343.636597 160.414322,346.289856 
	C170.018234,355.916840 180.156998,365.062622 189.190247,375.195618 
	C207.678543,395.934753 220.785507,419.027435 218.157761,448.327179 
	C216.761566,463.894684 210.100266,476.112762 196.526154,484.131744 
	C185.022064,490.927856 172.511719,494.139618 159.111053,494.100983 
	C157.265747,494.095673 155.416367,495.503235 153.568863,496.256683 
	C143.272995,495.901794 132.978699,495.301941 122.680992,495.236847 
	C88.532707,495.020905 54.383060,494.923706 20.234381,494.995056 
	C16.028843,495.003845 14.926189,493.770447 14.967523,489.660950 
	C15.166885,469.839600 15.176491,450.013885 14.962546,430.192841 
	C14.916750,425.949890 16.272692,424.948547 20.340218,424.937042 
	C48.154533,424.858582 75.968422,424.550842 103.781494,424.233673 
	C106.416115,424.203613 109.072586,423.744904 111.669777,423.234924 
	C118.370834,421.919159 120.630608,417.704346 116.727951,412.072906 
	C113.466911,407.367310 109.029472,403.383362 104.725311,399.510712 
	C87.102402,383.654663 71.687958,366.151398 62.267551,344.043732 
	C54.173107,325.047821 54.238041,306.185699 63.351665,287.518707 
	C71.600990,270.622070 86.068047,263.526245 103.957390,262.122559 
	C111.058662,261.565369 118.202560,261.551178 125.706696,261.092468 
z"/>
<path fill="#0269F8" opacity="1.000000" stroke="none" 
	d="
M544.078918,476.449707 
	C544.078918,431.310822 544.078918,386.171936 544.078918,340.304199 
	C532.056213,340.304199 520.455566,340.304199 508.142883,340.384766 
	C506.924469,340.730103 506.418060,340.994873 505.911682,341.259644 
	C505.655304,339.489594 505.179321,337.719940 505.175842,335.949402 
	C505.128632,312.016998 505.147064,288.084473 505.583313,263.719025 
	C546.748474,263.314514 587.479675,263.354340 628.210754,263.321808 
	C629.569275,263.320709 630.927246,262.586945 632.285461,262.194702 
	C651.188660,262.187592 670.091797,262.180511 689.523743,262.602112 
	C702.669678,275.730194 715.286865,288.429626 727.904053,301.129028 
	C727.172058,302.866791 726.867554,305.023010 725.640747,306.276459 
	C715.284729,316.857147 704.937866,327.462311 694.145813,337.588684 
	C691.804871,339.785217 687.704041,341.022675 684.380432,341.091431 
	C672.263550,341.342010 660.132507,340.910583 647.196655,340.583374 
	C632.459900,340.430511 618.533325,340.430511 604.044373,340.430511 
	C604.044373,343.051239 604.044373,345.332520 604.044373,347.613770 
	C604.044312,394.215302 604.052856,440.816864 604.016968,487.418365 
	C604.015320,489.547089 603.614319,491.675507 602.893677,493.844238 
	C583.550964,493.884430 564.713867,493.884430 545.265076,493.884430 
	C545.265076,491.223083 545.402222,489.107697 545.234314,487.016815 
	C544.950867,483.486267 544.474304,479.971252 544.078918,476.449707 
z"/>
<path fill="#FE8725" opacity="1.000000" stroke="none" 
	d="
M632.209351,261.803711 
	C630.927246,262.586945 629.569275,263.320709 628.210754,263.321808 
	C587.479675,263.354340 546.748474,263.314514 505.556519,263.266479 
	C505.095734,214.115158 505.095734,164.983414 505.095734,115.851685 
	C505.626831,115.525696 506.157928,115.199715 506.689026,114.873726 
	C567.037354,147.604263 608.059692,197.139618 632.209351,261.803711 
z"/>
<path fill="#0369F8" opacity="1.000000" stroke="none" 
	d="
M153.743011,496.554504 
	C155.416367,495.503235 157.265747,494.095673 159.111053,494.100983 
	C172.511719,494.139618 185.022064,490.927856 196.526154,484.131744 
	C210.100266,476.112762 216.761566,463.894684 218.157761,448.327179 
	C220.785507,419.027435 207.678543,395.934753 189.190247,375.195618 
	C180.156998,365.062622 170.018234,355.916840 160.414322,346.289856 
	C157.767441,343.636597 154.761337,340.184448 157.254181,336.799072 
	C159.209885,334.143127 163.227158,332.233582 166.628983,331.596436 
	C171.632935,330.659149 176.904480,331.051086 182.062027,331.050751 
	C201.372543,331.049591 220.683060,331.119141 240.454498,331.212463 
	C240.946060,389.533539 240.979965,447.804352 241.005722,506.075165 
	C241.015732,528.717773 241.007309,551.360352 241.007294,574.002991 
	C241.007294,575.805725 241.007278,577.608459 241.007278,580.580200 
	C237.627121,578.772522 234.941681,577.600342 232.534729,576.007385 
	C213.276047,563.261780 195.623856,548.481384 180.257477,531.319641 
	C170.640930,520.579468 162.641953,508.390961 153.743011,496.554504 
z"/>
<path fill="#FD8B2C" opacity="1.000000" stroke="none" 
	d="
M603.399353,493.804047 
	C603.614319,491.675507 604.015320,489.547089 604.016968,487.418365 
	C604.052856,440.816864 604.044312,394.215302 604.044373,347.613770 
	C604.044373,345.332520 604.044373,343.051239 604.044373,340.430511 
	C618.533325,340.430511 632.459900,340.430511 646.747803,340.641571 
	C646.433716,354.269684 646.225586,367.730133 644.985168,381.094757 
	C642.433289,408.590637 635.528015,435.082886 623.616150,460.005035 
	C617.410767,472.988190 609.695129,485.249573 602.372742,498.018036 
	C600.505554,497.462402 598.933655,496.101685 597.348145,496.085663 
	C581.555420,495.926422 565.760498,496.007416 549.966309,495.963531 
	C548.182007,495.958557 546.398621,495.602478 544.863220,495.159912 
	C563.366333,494.982361 581.621094,495.078796 599.875732,495.068665 
	C601.050476,495.067993 602.224854,494.244690 603.399353,493.804047 
z"/>
<path fill="#FD8B2C" opacity="1.000000" stroke="none" 
	d="
M323.428101,609.344604 
	C326.652374,612.399658 330.797821,612.794250 335.151306,613.096802 
	C352.311188,614.289001 369.454712,616.695679 386.609100,616.739136 
	C407.816376,616.792725 428.766296,613.095825 449.319550,607.714661 
	C458.285767,605.367188 467.132935,602.564758 476.422546,599.961182 
	C462.138275,606.743225 446.591125,610.563721 430.813599,613.689209 
	C410.541992,617.704895 390.068359,619.709045 369.463440,618.552979 
	C355.762573,617.784241 342.122253,615.734436 328.507080,613.875427 
	C326.643494,613.620972 325.082947,611.147461 323.428101,609.344604 
z"/>
<path fill="#FD8B2C" opacity="1.000000" stroke="none" 
	d="
M506.368805,347.445496 
	C507.004303,347.920380 507.934052,348.845612 507.933807,349.770538 
	C507.926361,378.268768 507.827759,406.766998 507.492554,435.581146 
	C507.039703,434.948364 506.665924,434.000610 506.660370,433.050720 
	C506.494354,404.665863 506.364838,376.280762 506.368805,347.445496 
z"/>
<path fill="#FD8B2C" opacity="1.000000" stroke="none" 
	d="
M495.647034,509.522552 
	C495.751434,509.977997 495.587860,510.614838 495.221558,510.768585 
	C476.928528,518.446777 458.479736,521.131165 439.727203,512.316284 
	C439.155914,512.047729 438.701660,511.530182 438.091949,510.823883 
	C447.884338,513.738159 457.801331,517.857239 468.379059,516.151672 
	C477.469849,514.685913 486.325073,511.759247 495.647034,509.522552 
z"/>
<path fill="#1C8C84" opacity="1.000000" stroke="none" 
	d="
M728.009216,300.768738 
	C715.286865,288.429626 702.669678,275.730194 689.970825,262.719849 
	C690.842651,262.865631 692.008911,263.107849 692.717896,263.811066 
	C703.880310,274.882477 714.998169,285.998993 726.073425,297.157654 
	C726.952820,298.043671 727.443176,299.315796 728.009216,300.768738 
z"/>
<path fill="#34A595" opacity="1.000000" stroke="none" 
	d="
M403.454407,83.740776 
	C386.870941,83.707664 370.100220,83.406502 352.914612,83.076614 
	C369.009216,82.961761 385.518768,82.870636 402.028442,82.818367 
	C402.440643,82.817055 402.854218,83.244987 403.454407,83.740776 
z"/>
<path fill="#FD8B2C" opacity="1.000000" stroke="none" 
	d="
M325.648834,341.405579 
	C326.016113,351.635620 326.041687,361.837585 325.962433,372.038696 
	C325.950317,373.598785 325.453766,375.155151 324.832520,376.859894 
	C324.436096,365.669830 324.375488,354.333130 324.380524,342.996429 
	C324.380768,342.456573 324.962128,341.916962 325.648834,341.405579 
z"/>
<path fill="#FD8B2C" opacity="1.000000" stroke="none" 
	d="
M537.121460,492.377380 
	C537.941956,492.593445 538.814819,493.210266 539.687683,493.827087 
	C538.917786,494.537018 538.264832,495.603333 537.359436,495.900482 
	C530.022339,498.308441 522.637817,500.572113 514.844482,502.850281 
	C520.691956,500.447754 526.993835,498.151672 533.210815,495.644928 
	C534.678528,495.053131 535.860413,493.752655 537.121460,492.377380 
z"/>
<path fill="#FD8B2C" opacity="1.000000" stroke="none" 
	d="
M558.317139,549.899902 
	C561.435364,546.336853 564.879456,542.698975 568.670044,539.033325 
	C565.558716,542.612122 562.100891,546.218628 558.317139,549.899902 
z"/>
<path fill="#FD8B2C" opacity="1.000000" stroke="none" 
	d="
M508.656555,504.491760 
	C505.752106,505.965118 502.493896,507.417969 498.808899,508.835419 
	C501.689026,507.357086 504.995911,505.914185 508.656555,504.491760 
z"/>
<path fill="#FD8B2C" opacity="1.000000" stroke="none" 
	d="
M378.834717,429.650146 
	C377.267792,427.461395 375.682587,424.920502 374.119385,421.987885 
	C375.699768,424.163422 377.258118,426.730713 378.834717,429.650146 
z"/>
<path fill="#FD8B2C" opacity="1.000000" stroke="none" 
	d="
M395.853577,459.648865 
	C394.279663,457.455750 392.690063,454.909424 391.123505,451.970032 
	C392.710327,454.149872 394.274139,456.722778 395.853577,459.648865 
z"/>
<path fill="#FD8B2C" opacity="1.000000" stroke="none" 
	d="
M478.341919,599.537109 
	C480.702179,598.321533 483.415466,597.148499 486.513672,595.971191 
	C484.164032,597.171143 481.429474,598.375427 478.341919,599.537109 
z"/>
<path fill="#FD8B2C" opacity="1.000000" stroke="none" 
	d="
M519.055176,479.329407 
	C520.636108,480.439728 522.287964,481.873779 523.970215,483.652740 
	C522.375732,482.549469 520.750977,481.101288 519.055176,479.329407 
z"/>
<path fill="#FD8B2C" opacity="1.000000" stroke="none" 
	d="
M373.850220,420.656738 
	C372.605957,419.138123 371.348633,417.274200 370.109589,415.029480 
	C371.364319,416.536255 372.600739,418.423828 373.850220,420.656738 
z"/>
<path fill="#FD8B2C" opacity="1.000000" stroke="none" 
	d="
M385.859009,441.656311 
	C384.617798,440.130219 383.356567,438.258667 382.115692,436.004089 
	C383.370331,437.517670 384.604645,439.414276 385.859009,441.656311 
z"/>
<path fill="#FD8B2C" opacity="1.000000" stroke="none" 
	d="
M389.782745,448.659393 
	C388.558990,447.123535 387.327942,445.243805 386.119568,442.980469 
	C387.353302,444.503052 388.564362,446.409271 389.782745,448.659393 
z"/>
<path fill="#FD8B2C" opacity="1.000000" stroke="none" 
	d="
M407.790955,480.659637 
	C406.567078,479.127686 405.331909,477.251831 404.117828,474.993896 
	C405.352509,476.513123 406.566071,478.414459 407.790955,480.659637 
z"/>
<path fill="#FD8B2C" opacity="1.000000" stroke="none" 
	d="
M490.312988,594.444336 
	C491.645569,593.592041 493.302094,592.771179 495.301758,591.925964 
	C493.975616,592.759644 492.306274,593.617737 490.312988,594.444336 
z"/>
<path fill="#FD8B2C" opacity="1.000000" stroke="none" 
	d="
M402.709839,471.675598 
	C401.839569,470.778381 400.966858,469.551300 400.119720,467.956055 
	C400.999329,468.840485 401.853363,470.093140 402.709839,471.675598 
z"/>
<path fill="#FD8B2C" opacity="1.000000" stroke="none" 
	d="
M410.729553,485.675903 
	C409.849457,484.795441 408.968597,483.585419 408.108582,482.011536 
	C408.995911,482.880554 409.862366,484.113434 410.729553,485.675903 
z"/>
<path fill="#FD8B2C" opacity="1.000000" stroke="none" 
	d="
M365.800323,406.718201 
	C364.907928,405.798218 364.003784,404.540619 363.128418,402.904907 
	C364.034332,403.811340 364.911469,405.095978 365.800323,406.718201 
z"/>
<path fill="#FD8B2C" opacity="1.000000" stroke="none" 
	d="
M398.733948,464.673950 
	C397.856873,463.784149 396.974579,462.563568 396.116394,460.975220 
	C397.003265,461.852722 397.865997,463.097961 398.733948,464.673950 
z"/>
<path fill="#FD8B2C" opacity="1.000000" stroke="none" 
	d="
M514.328857,581.825073 
	C515.206238,580.926941 516.415039,580.008667 517.993652,579.111450 
	C517.129089,580.023315 515.894714,580.914124 514.328857,581.825073 
z"/>
<path fill="#FD8B2C" opacity="1.000000" stroke="none" 
	d="
M381.816162,434.669312 
	C380.915344,433.782196 380.004547,432.561432 379.118378,430.967651 
	C380.030731,431.841614 380.918457,433.088623 381.816162,434.669312 
z"/>
<path fill="#FD8B2C" opacity="1.000000" stroke="none" 
	d="
M369.799377,413.667511 
	C368.908295,412.748901 368.006836,411.494843 367.136719,409.858704 
	C368.041748,410.761719 368.915375,412.046875 369.799377,413.667511 
z"/>
<path fill="#FD8B2C" opacity="1.000000" stroke="none" 
	d="
M546.298584,559.880188 
	C546.865723,558.995605 547.749756,558.044983 549.002197,557.114868 
	C548.452209,558.028320 547.533936,558.921204 546.298584,559.880188 
z"/>
<path fill="#FD8B2C" opacity="1.000000" stroke="none" 
	d="
M515.202515,474.315399 
	C516.083923,474.903442 516.991882,475.811829 517.871582,477.090027 
	C516.971924,476.518433 516.100464,475.577087 515.202515,474.315399 
z"/>
<path fill="#FD8B2C" opacity="1.000000" stroke="none" 
	d="
M423.086395,500.621948 
	C422.146484,500.220581 421.104706,499.513031 420.011169,498.465393 
	C420.967773,498.855438 421.976135,499.585602 423.086395,500.621948 
z"/>
<path fill="#FD8B2C" opacity="1.000000" stroke="none" 
	d="
M507.383789,454.301270 
	C507.861725,454.838715 508.248322,455.687836 508.420959,456.726685 
	C507.902130,456.148590 507.597290,455.380798 507.383789,454.301270 
z"/>
<path fill="#FD8B2C" opacity="1.000000" stroke="none" 
	d="
M347.741699,374.700012 
	C347.166840,374.214172 346.585724,373.422974 346.012390,372.289886 
	C346.591919,372.763550 347.163696,373.579102 347.741699,374.700012 
z"/>
<path fill="#FD8B2C" opacity="1.000000" stroke="none" 
	d="
M533.301819,569.820435 
	C533.545471,569.262207 534.093384,568.677734 534.982056,568.106567 
	C534.750549,568.677917 534.178284,569.236023 533.301819,569.820435 
z"/>
<path fill="#FD8B2C" opacity="1.000000" stroke="none" 
	d="
M530.306641,571.820862 
	C530.571350,571.264282 531.145203,570.683533 532.069153,570.124695 
	C531.818115,570.696594 531.216919,571.246643 530.306641,571.820862 
z"/>
<path fill="#FD8B2C" opacity="1.000000" stroke="none" 
	d="
M527.307312,573.831299 
	C527.570923,573.272949 528.143921,572.688110 529.068176,572.124939 
	C528.818542,572.699341 528.217651,573.252136 527.307312,573.831299 
z"/>
<path fill="#FD8B2C" opacity="1.000000" stroke="none" 
	d="
M537.302490,566.923767 
	C537.549744,566.352600 538.107361,565.728821 539.021973,565.120483 
	C538.790222,565.714294 538.201538,566.292664 537.302490,566.923767 
z"/>
<path fill="#FD8B2C" opacity="1.000000" stroke="none" 
	d="
M541.300415,563.925659 
	C541.529968,563.352966 542.066528,562.725708 542.952759,562.105713 
	C542.737488,562.698975 542.172485,563.285034 541.300415,563.925659 
z"/>
<path fill="#FD8B2C" opacity="1.000000" stroke="none" 
	d="
M511.294495,583.663086 
	C511.570099,583.138184 512.147705,582.614929 513.057739,582.116028 
	C512.792236,582.648560 512.194397,583.156677 511.294495,583.663086 
z"/>
<path fill="#FD8B2C" opacity="1.000000" stroke="none" 
	d="
M351.748230,381.690796 
	C351.212555,381.384521 350.664246,380.764313 350.149872,379.786621 
	C350.701080,380.078400 351.218353,380.727661 351.748230,381.690796 
z"/>
<path fill="#FD8B2C" opacity="1.000000" stroke="none" 
	d="
M553.296997,553.912231 
	C553.536743,553.344910 554.084351,552.722778 554.984131,552.112305 
	C554.759155,552.701782 554.182007,553.279663 553.296997,553.912231 
z"/>
<path fill="#FD8B2C" opacity="1.000000" stroke="none" 
	d="
M519.311951,578.788086 
	C519.608154,578.242310 520.219116,577.678101 521.189880,577.145020 
	C520.908691,577.707214 520.267700,578.238403 519.311951,578.788086 
z"/>
<path fill="#FD8B2C" opacity="1.000000" stroke="none" 
	d="
M579.364014,528.088989 
	C579.497314,527.498169 579.918335,526.795410 580.677368,526.048950 
	C580.560852,526.662476 580.106262,527.319763 579.364014,528.088989 
z"/>
<path fill="#FD8B2C" opacity="1.000000" stroke="none" 
	d="
M585.370544,521.104858 
	C585.498230,520.513123 585.911865,519.803833 586.663757,519.047546 
	C586.553467,519.662781 586.104980,520.325073 585.370544,521.104858 
z"/>
<path fill="#FD8B2C" opacity="1.000000" stroke="none" 
	d="
M434.250488,508.590027 
	C433.650909,508.559174 432.903748,508.261139 432.075714,507.649414 
	C432.697571,507.664764 433.400238,507.993805 434.250488,508.590027 
z"/>
<path fill="#FD8B2C" opacity="1.000000" stroke="none" 
	d="
M431.158295,506.620544 
	C430.568512,506.578094 429.855347,506.263000 429.067993,505.641449 
	C429.674164,505.672638 430.354523,506.010254 431.158295,506.620544 
z"/>
<path fill="#FD8B2C" opacity="1.000000" stroke="none" 
	d="
M417.866943,495.722778 
	C417.297699,495.497223 416.693878,494.962555 416.092255,494.089050 
	C416.673767,494.304718 417.253082,494.859161 417.866943,495.722778 
z"/>
<path fill="#FD8B2C" opacity="1.000000" stroke="none" 
	d="
M413.772064,490.694702 
	C413.217621,490.437042 412.657013,489.871277 412.116241,488.964722 
	C412.679382,489.211517 413.222626,489.799042 413.772064,490.694702 
z"/>
<path fill="#FD8B2C" opacity="1.000000" stroke="none" 
	d="
M513.347839,471.293579 
	C513.879395,471.572754 514.394775,472.152710 514.884460,473.064209 
	C514.349792,472.795288 513.840759,472.194855 513.347839,471.293579 
z"/>
<path fill="#FD8B2C" opacity="1.000000" stroke="none" 
	d="
M509.545563,463.296844 
	C510.040070,463.662323 510.454529,464.330841 510.805359,465.334412 
	C510.316345,464.979614 509.890930,464.289764 509.545563,463.296844 
z"/>
<path fill="#FD8B2C" opacity="1.000000" stroke="none" 
	d="
M508.534973,459.250732 
	C508.945221,459.531586 509.265350,460.076660 509.400116,460.768951 
	C508.958099,460.449097 508.701447,459.982025 508.534973,459.250732 
z"/>
<path fill="#FD8B2C" opacity="1.000000" stroke="none" 
	d="
M361.816956,399.723389 
	C361.261078,399.399200 360.697052,398.746246 360.180939,397.722778 
	C360.755493,398.033081 361.282166,398.713806 361.816956,399.723389 
z"/>
<path fill="#FD8B2C" opacity="1.000000" stroke="none" 
	d="
M359.704224,395.695068 
	C359.169403,395.392609 358.638641,394.779297 358.139771,393.816193 
	C358.683899,394.105652 359.196106,394.744904 359.704224,395.695068 
z"/>
<path fill="#FD8B2C" opacity="1.000000" stroke="none" 
	d="
M355.721893,388.694580 
	C355.188751,388.393951 354.648987,387.782410 354.140594,386.818970 
	C354.686401,387.105957 355.200836,387.744812 355.721893,388.694580 
z"/>
<path fill="#FD8B2C" opacity="1.000000" stroke="none" 
	d="
M505.995483,341.465454 
	C506.418060,340.994873 506.924469,340.730103 507.700806,340.551025 
	C507.593292,341.073273 507.215912,341.509827 506.605560,341.975769 
	C506.372620,342.005127 506.079285,341.671265 505.995483,341.465454 
z"/>
<path fill="#FD8B2C" opacity="1.000000" stroke="none" 
	d="
M497.318115,591.354614 
	C497.193268,591.251160 497.547455,591.037354 497.642578,590.995239 
	C497.804047,591.217896 497.705811,591.386230 497.318115,591.354614 
z"/>
<path fill="#4D671C" opacity="1.000000" stroke="none" 
	d="
M602.893677,493.844238 
	C602.224854,494.244690 601.050476,495.067993 599.875732,495.068665 
	C581.621094,495.078796 563.366333,494.982361 544.677307,494.791779 
	C544.123962,488.934967 544.004883,483.196960 543.982422,476.954346 
	C544.474304,479.971252 544.950867,483.486267 545.234314,487.016815 
	C545.402222,489.107697 545.265076,491.223083 545.265076,493.884430 
	C564.713867,493.884430 583.550964,493.884430 602.893677,493.844238 
z"/>
</svg>